<svg xmlns="http://www.w3.org/2000/svg" xmlns:xlink="http://www.w3.org/1999/xlink" version="1.1" viewBox="0 0 96 120" x="0px" y="0px"><path d="M48 4c24.256 0 44 19.744 44 44s-19.744 44-44 44-44-19.744-44-44 19.744-44 44-44zM48 0c-26.508 0-48 21.492-48 48s21.492 48 48 48 48-21.492 48-48-21.492-48-48-48v0z" fill="#000000"/><path d="M48 66c-9.92 0-18-8.080-18-18s8.080-18 18-18 18 8.080 18 18-8.080 18-18 18zM48 34c-7.72 0-14 6.28-14 14s6.28 14 14 14 14-6.28 14-14-6.28-14-14-14z" fill="#000000"/><path d="M15.348 82.436c-0.74 0-1.448-0.416-1.792-1.12-0.484-0.992-0.080-2.192 0.916-2.676l31.532-15.424c0.98-0.48 2.188-0.080 2.676 0.916 0.484 0.992 0.080 2.192-0.916 2.676l-31.532 15.416c-0.288 0.148-0.588 0.212-0.884 0.212z" fill="#000000"/><path d="M53.172 95.632c-0.132 0-0.264-0.012-0.4-0.040-1.084-0.228-1.784-1.272-1.576-2.364l6.964-34.456c0.228-1.084 1.296-1.772 2.356-1.576 1.084 0.228 1.784 1.272 1.576 2.356l-6.964 34.464c-0.192 0.96-1.028 1.616-1.956 1.616z" fill="#000000"/><path d="M87.008 73.984c-0.564 0-1.108-0.236-1.508-0.688l-23.008-26.416c-0.728-0.832-0.636-2.084 0.196-2.82 0.836-0.732 2.092-0.636 2.82 0.204l23.008 26.416c0.728 0.832 0.636 2.092-0.196 2.82-0.384 0.324-0.848 0.484-1.312 0.484z" fill="#000000"/><path d="M55.292 35.756c-1.052 0-1.928-0.816-1.996-1.884-0.072-1.092 0.764-2.052 1.872-2.116l35.424-2.232c1.232-0.152 2.060 0.768 2.124 1.872 0.072 1.1-0.772 2.060-1.88 2.12l-35.424 2.232c-0.036 0.008-0.080 0.008-0.12 0.008z" fill="#000000"/><path d="M40 36.148c-0.392 0-0.772-0.108-1.108-0.34-0.916-0.616-1.164-1.86-0.552-2.772l20.252-30.148c0.612-0.916 1.872-1.152 2.764-0.548 0.916 0.616 1.164 1.86 0.556 2.772l-20.252 30.148c-0.388 0.58-1.020 0.888-1.66 0.888z" fill="#000000"/><path d="M32.32 46.816c-0.868 0-1.668-0.58-1.92-1.444l-9.792-33.9c-0.3-1.064 0.308-2.168 1.372-2.476 1.048-0.308 2.168 0.304 2.476 1.368l9.784 33.908c0.304 1.064-0.304 2.168-1.368 2.472-0.18 0.048-0.368 0.072-0.552 0.072z" fill="#000000"/><path d="M36.208 60.804c-0.244 0-0.488-0.044-0.732-0.136l-33.816-13.24c-1.028-0.412-1.536-1.572-1.132-2.592s1.552-1.54 2.588-1.132l33.82 13.248c1.028 0.404 1.536 1.564 1.132 2.584-0.312 0.788-1.064 1.268-1.86 1.268z" fill="#000000"/><text x="0" y="111" fill="#000000" font-size="5px" font-weight="bold" font-family="'Helvetica Neue', Helvetica, Arial-Unicode, Arial, Sans-serif">Created by iconsmind.com</text><text x="0" y="116" fill="#000000" font-size="5px" font-weight="bold" font-family="'Helvetica Neue', Helvetica, Arial-Unicode, Arial, Sans-serif">from the Noun Project</text></svg>