<svg viewBox="0 0 96 120" xmlns="http://www.w3.org/2000/svg"><path d="m48 4c24.256 0 44 19.744 44 44s-19.744 44-44 44-44-19.744-44-44 19.744-44 44-44zm0-4c-26.508 0-48 21.492-48 48s21.492 48 48 48 48-21.492 48-48-21.492-48-48-48z"/><path d="m48 66c-9.92 0-18-8.08-18-18s8.08-18 18-18 18 8.08 18 18-8.08 18-18 18zm0-32c-7.72 0-14 6.28-14 14s6.28 14 14 14 14-6.28 14-14-6.28-14-14-14z"/><path d="m15.348 82.436c-.74 0-1.448-.416-1.792-1.12-.484-.992-.08-2.192.916-2.676l31.532-15.424c.98-.48 2.188-.08 2.676.916.484.992.08 2.192-.916 2.676l-31.532 15.416c-.288.148-.588.212-.884.212z"/><path d="m53.172 95.632c-.132 0-.264-.012-.4-.04-1.084-.228-1.784-1.272-1.576-2.364l6.964-34.456c.228-1.084 1.296-1.772 2.356-1.576 1.084.228 1.784 1.272 1.576 2.356l-6.964 34.464c-.192.96-1.028 1.616-1.956 1.616z"/><path d="m87.008 73.984c-.564 0-1.108-.236-1.508-.688l-23.008-26.416c-.728-.832-.636-2.084.196-2.82.836-.732 2.092-.636 2.82.204l23.008 26.416c.728.832.636 2.092-.196 2.82-.384.324-.848.484-1.312.484z"/><path d="m55.292 35.756c-1.052 0-1.928-.816-1.996-1.884-.072-1.092.764-2.052 1.872-2.116l35.424-2.232c1.232-.152 2.06.768 2.124 1.872.072 1.1-.772 2.06-1.88 2.12l-35.424 2.232c-.036.008-.08.008-.12.008z"/><path d="m40 36.148c-.392 0-.772-.108-1.108-.34-.916-.616-1.164-1.86-.552-2.772l20.252-30.148c.612-.916 1.872-1.152 2.764-.548.916.616 1.164 1.86.556 2.772l-20.252 30.148c-.388.58-1.02.888-1.66.888z"/><path d="m32.32 46.816c-.868 0-1.668-.58-1.92-1.444l-9.792-33.9c-.3-1.064.308-2.168 1.372-2.476 1.048-.308 2.168.304 2.476 1.368l9.784 33.908c.304 1.064-.304 2.168-1.368 2.472-.18.048-.368.072-.552.072z"/><path d="m36.208 60.804c-.244 0-.488-.044-.732-.136l-33.816-13.24c-1.028-.412-1.536-1.572-1.132-2.592s1.552-1.54 2.588-1.132l33.82 13.248c1.028.404 1.536 1.564 1.132 2.584-.312.788-1.064 1.268-1.86 1.268z"/><g font-family="'Helvetica Neue', Helvetica, Arial-Unicode, Arial, Sans-serif" font-size="5" font-weight="bold"><text y="111">Created by iconsmind.com</text><text y="116">from the Noun Project</text></g></svg>